<?xml version="1.0" encoding="UTF-8"?> <svg xmlns="http://www.w3.org/2000/svg" id="Layer_1" data-name="Layer 1" viewBox="0 0 69 73.75"> <defs> <style>.cls-1,.cls-2{fill:#7c3df8;}.cls-2{font-size:36.72px;font-family:Rubik;}.cls-3{font-size:13px;}</style> </defs> <title>15авг</title> <path class="cls-1" d="M83.5,18.25h-10a1.48,1.48,0,0,0-.5.09V16.62a5,5,0,1,0-10,0v1.63H55V16.62a5,5,0,1,0-10,0v1.63H37V16.62a5,5,0,1,0-10,0v1.63H17.5a1.5,1.5,0,0,0-1.5,1.5v64a1.5,1.5,0,0,0,1.5,1.5h66a1.5,1.5,0,0,0,1.5-1.5v-64A1.5,1.5,0,0,0,83.5,18.25ZM66,16.62a2,2,0,1,1,4,0v6.76a2,2,0,1,1-4,0V16.62Zm-18,0a2,2,0,1,1,4,0v6.76a2,2,0,1,1-4,0V16.62Zm-18,0a2,2,0,1,1,4,0v6.76a2,2,0,1,1-4,0V16.62ZM82,82.25H19v-61h8v2.13a5,5,0,1,0,10,0V21.25h8v2.13a5,5,0,1,0,10,0V21.25h8v2.13a5,5,0,1,0,10,0V21.16a1.48,1.48,0,0,0,.5.09H82v61Z" transform="translate(-16 -11.5)"></path> <text class="cls-2" transform="translate(15.86 48.47)">15<tspan class="cls-3"><tspan x="-6.13" y="14">авг</tspan><tspan x="15.06" y="14">у</tspan><tspan x="22.43" y="14">с</tspan><tspan x="29.64" y="14">т</tspan><tspan x="36.31" y="14">а</tspan></tspan></text> </svg> 