<?xml version="1.0" encoding="UTF-8"?> <svg xmlns="http://www.w3.org/2000/svg" xmlns:xlink="http://www.w3.org/1999/xlink" id="Layer_1" data-name="Layer 1" viewBox="0 0 181.16 39.07"> <defs> <style>.cls-1,.cls-3{fill:#fff;}.cls-2{clip-path:url(#clip-path);}.cls-3{opacity:0.07;isolation:isolate;}.cls-4{clip-path:url(#clip-path-2);}</style> <clipPath id="clip-path" transform="translate(-3.34 -8.68)"> <circle class="cls-1" cx="27.22" cy="32.02" r="1.8"></circle> </clipPath> <clipPath id="clip-path-2" transform="translate(-3.34 -8.68)"> <polygon class="cls-1" points="21.44 33.26 27.47 40.45 32.52 32.96 27.49 35.38 21.44 33.26"></polygon> </clipPath> </defs> <title>logo 1 mok footer white</title> <path class="cls-1" d="M74.78,8.88a0.29,0.29,0,0,1,.09.21V9.88a0.3,0.3,0,0,1-.3.3H71v6.06a0.3,0.3,0,0,1-.3.3H69.8a0.3,0.3,0,0,1-.3-0.3h0V9.09a0.3,0.3,0,0,1,.3-0.3h4.78A0.29,0.29,0,0,1,74.78,8.88Z" transform="translate(-3.34 -8.68)"></path> <path class="cls-1" d="M95.92,16.45a0.29,0.29,0,0,1-.09-0.21V9.09a0.3,0.3,0,0,1,.3-0.3H101a0.3,0.3,0,0,1,.3.3h0V9.88a0.3,0.3,0,0,1-.3.3H97.32v1.67h2.09a2.5,2.5,0,0,1,1.23.29,2,2,0,0,1,.86.86,2.49,2.49,0,0,1,.29,1.23,2.57,2.57,0,0,1-.27,1.19,2.05,2.05,0,0,1-.81.85,2.45,2.45,0,0,1-1.26.31H96.17A0.28,0.28,0,0,1,95.92,16.45Zm3.26-1.29a1.1,1.1,0,0,0,.81-0.27,1,1,0,0,0,0-1.38,1.1,1.1,0,0,0-.81-0.27H97.32v1.92h1.86Z" transform="translate(-3.34 -8.68)"></path> <path class="cls-1" d="M129.15,8.88a0.29,0.29,0,0,1,.09.21v7.14a0.3,0.3,0,0,1-.3.3H128a0.31,0.31,0,0,1-.3-0.3v-6H124.4v6.06a0.3,0.3,0,0,1-.3.3h-0.9a0.3,0.3,0,0,1-.3-0.3h0V9.09a0.3,0.3,0,0,1,.3-0.3h5.73A0.28,0.28,0,0,1,129.15,8.88Z" transform="translate(-3.34 -8.68)"></path> <path class="cls-1" d="M156.23,9.51a3.19,3.19,0,0,1,.88,2.17v2a3.17,3.17,0,0,1-.88,2.16,3.79,3.79,0,0,1-4.73,0,3.18,3.18,0,0,1-.88-2.16v-2a3.2,3.2,0,0,1,.88-2.16A3.78,3.78,0,0,1,156.23,9.51Zm-3.61,1a1.74,1.74,0,0,0-.52,1.23v1.87a1.72,1.72,0,0,0,.52,1.22,2,2,0,0,0,2.49,0,1.73,1.73,0,0,0,.51-1.22V11.74A1.82,1.82,0,0,0,152.62,10.51Z" transform="translate(-3.34 -8.68)"></path> <path class="cls-1" d="M177.71,9.09a0.29,0.29,0,0,1,.09-0.2A0.28,0.28,0,0,1,178,8.8h0.83a0.48,0.48,0,0,1,.29.07,0.69,0.69,0,0,1,.17.2l1.8,3.42,1.8-3.42a0.69,0.69,0,0,1,.17-0.2,0.48,0.48,0,0,1,.29-0.07h0.83a0.3,0.3,0,0,1,.3.3h0a0.22,0.22,0,0,1,0,.1l-2.7,5.09-0.11.2a11.7,11.7,0,0,1-.65,1.12,2.41,2.41,0,0,1-.69.67,1.84,1.84,0,0,1-1,.27H178.5a0.3,0.3,0,0,1-.3-0.3h0v-0.8a0.3,0.3,0,0,1,.3-0.3h0.63a0.79,0.79,0,0,0,.59-0.26,4.34,4.34,0,0,0,.6-0.87l-2.57-4.83A0.22,0.22,0,0,1,177.71,9.09Z" transform="translate(-3.34 -8.68)"></path> <polygon class="cls-1" points="11.88 19.66 23.76 38.59 0 38.59 11.88 19.66"></polygon> <polygon class="cls-1" points="11.88 19.66 23.76 38.59 0 38.59 11.88 19.66"></polygon> <polygon class="cls-1" points="35.65 19.66 47.53 38.59 23.76 38.59 35.65 19.66"></polygon> <circle class="cls-1" cx="23.88" cy="23.34" r="1.8"></circle> <circle class="cls-1" cx="23.88" cy="23.34" r="1.8"></circle> <circle class="cls-1" cx="23.88" cy="23.34" r="1.8"></circle> <g class="cls-2"> <rect class="cls-3" x="0.02" y="19.38" width="23.75" height="19.18"></rect> </g> <polygon class="cls-1" points="18.1 24.58 24.13 31.77 29.18 24.28 24.15 26.7 18.1 24.58"></polygon> <polygon class="cls-1" points="23.76 0.74 35.64 19.66 11.88 19.66 23.76 0.74"></polygon> <polygon class="cls-1" points="18.1 24.58 24.13 31.77 29.18 24.28 24.15 26.7 18.1 24.58"></polygon> <g class="cls-4"> <rect class="cls-3" x="3.38" y="19.76" width="20.44" height="19.31"></rect> </g> <polygon class="cls-1" points="23.76 0.74 35.64 19.66 11.88 19.66 23.76 0.74"></polygon> <path class="cls-1" d="M75.69,46.12a0.88,0.88,0,0,1-.65.27H73.65a0.93,0.93,0,0,1-.92-0.92V26.73l-5.51,4.18a0.85,0.85,0,0,1-.58.2,0.87,0.87,0,0,1-.71-0.34l-0.82-1a1,1,0,0,1-.2-0.58,0.84,0.84,0,0,1,.37-0.71l7.28-5.58a1.84,1.84,0,0,1,1.09-.27H75a0.93,0.93,0,0,1,.92.92v22A0.88,0.88,0,0,1,75.69,46.12Z" transform="translate(-3.34 -8.68)"></path> <path class="cls-1" d="M101.9,46.12a0.89,0.89,0,0,1-.27-0.65V34.08L91.73,46a0.87,0.87,0,0,1-.75.37H89.82a0.83,0.83,0,0,1-.63-0.27,0.91,0.91,0,0,1-.25-0.65V29.62a0.93,0.93,0,0,1,.92-0.92h1.26a0.92,0.92,0,0,1,.92.92v11.5l9.9-12a1.2,1.2,0,0,1,.32-0.29,0.9,0.9,0,0,1,.43-0.08h1.12a0.93,0.93,0,0,1,.92.92v15.8a0.93,0.93,0,0,1-.92.92H102.5A0.88,0.88,0,0,1,101.9,46.12ZM92.78,21.58a0.61,0.61,0,0,1,.48-0.19h1.09a0.61,0.61,0,0,1,.48.19A0.65,0.65,0,0,1,95,22a2.18,2.18,0,0,0,.5,1.46,1.85,1.85,0,0,0,2.62.07l0.07-.07A2.18,2.18,0,0,0,98.68,22a0.65,0.65,0,0,1,.17-0.46,0.61,0.61,0,0,1,.48-0.19h1.09a0.61,0.61,0,0,1,.48.19,0.65,0.65,0,0,1,.17.46A4.51,4.51,0,0,1,100,25a4.43,4.43,0,0,1-6.26,0,4.51,4.51,0,0,1-1.09-3A0.65,0.65,0,0,1,92.78,21.58Z" transform="translate(-3.34 -8.68)"></path> <path class="cls-1" d="M136.9,23.67a1.66,1.66,0,0,1,1.5-1.09h1.29a0.93,0.93,0,0,1,.92.92v22a0.93,0.93,0,0,1-.92.92H138.3a0.93,0.93,0,0,1-.92-0.92V29.35l-5.31,10.24a2.52,2.52,0,0,1-.6.82,1.19,1.19,0,0,1-.8.27h-1.29a1.19,1.19,0,0,1-.8-0.27,2.49,2.49,0,0,1-.6-0.82l-5.31-10.24V45.47a0.93,0.93,0,0,1-.92.92h-1.39a0.93,0.93,0,0,1-.92-0.92v-22a0.92,0.92,0,0,1,.92-0.92h1.29a1.66,1.66,0,0,1,1.5,1.09L130,37Z" transform="translate(-3.34 -8.68)"></path> <path class="cls-1" d="M158.59,23.46a8.21,8.21,0,0,1,3.21,3.32A10.46,10.46,0,0,1,163,31.46q0.07,2,.07,3t-0.07,3a10.79,10.79,0,0,1-1.21,4.68,8.25,8.25,0,0,1-3.2,3.32,10.75,10.75,0,0,1-10,0,8.25,8.25,0,0,1-3.2-3.32,10.79,10.79,0,0,1-1.21-4.68v-6a10.46,10.46,0,0,1,1.17-4.68,8.2,8.2,0,0,1,3.21-3.32A10.82,10.82,0,0,1,158.59,23.46ZM149.2,26.9a6.57,6.57,0,0,0-1.77,4.73v5.72a6.58,6.58,0,0,0,1.77,4.73,6.83,6.83,0,0,0,8.78,0,6.57,6.57,0,0,0,1.77-4.73c0-1.36.07-2.31,0.07-2.86s0-1.5-.07-2.86A6.57,6.57,0,0,0,158,26.9,6.82,6.82,0,0,0,149.2,26.9Z" transform="translate(-3.34 -8.68)"></path> <path class="cls-1" d="M183.07,45a0.94,0.94,0,0,1,.34.61,0.76,0.76,0,0,1-.75.75h-2.11a1.67,1.67,0,0,1-1.22-.51L169.7,36.7v8.78a0.93,0.93,0,0,1-.92.92h-1.39a0.93,0.93,0,0,1-.92-0.92v-22a0.92,0.92,0,0,1,.92-0.92h1.39a0.93,0.93,0,0,1,.92.92V31.4l9.08-8.33a1.67,1.67,0,0,1,1.22-.51h2a0.75,0.75,0,0,1,.75.75,0.94,0.94,0,0,1-.34.61L171.5,34Z" transform="translate(-3.34 -8.68)"></path> <circle id="_Path_" data-name=" Path " class="cls-1" cx="78.56" cy="26.03" r="1.94"></circle> </svg> 