<?xml version="1.0" encoding="UTF-8"?> <svg xmlns="http://www.w3.org/2000/svg" xmlns:xlink="http://www.w3.org/1999/xlink" id="Layer_1" data-name="Layer 1" viewBox="0 0 207.75 45.75"> <defs> <style>.cls-1{fill:none;}.cls-2,.cls-9{fill:#6d3eb4;}.cls-3{fill:#414c5c;}.cls-4{fill:#6e6f72;}.cls-5{clip-path:url(#clip-path);}.cls-11,.cls-13,.cls-6,.cls-9{opacity:0.07;}.cls-6{fill:url(#Безымянный_градиент_17);}.cls-7{fill:#90d234;}.cls-8{clip-path:url(#clip-path-2);}.cls-10{clip-path:url(#clip-path-3);}.cls-11{fill:url(#Безымянный_градиент_17-2);}.cls-12{clip-path:url(#clip-path-4);}.cls-13{fill:url(#Безымянный_градиент_17-3);}</style> <clipPath id="clip-path"> <polygon class="cls-1" points="36.72 22.85 48.6 41.78 24.84 41.78 36.72 22.85"></polygon> </clipPath> <linearGradient id="Безымянный_градиент_17" x1="58.29" y1="32.17" x2="37.23" y2="32.17" gradientTransform="translate(70.12 -5.78) rotate(90)" gradientUnits="userSpaceOnUse"> <stop offset="0" stop-color="#fff"></stop> <stop offset="0.18" stop-color="#fff" stop-opacity="0.99"></stop> <stop offset="0.31" stop-color="#fff" stop-opacity="0.95"></stop> <stop offset="0.43" stop-color="#fff" stop-opacity="0.89"></stop> <stop offset="0.54" stop-color="#fff" stop-opacity="0.8"></stop> <stop offset="0.64" stop-color="#fff" stop-opacity="0.69"></stop> <stop offset="0.74" stop-color="#fff" stop-opacity="0.55"></stop> <stop offset="0.83" stop-color="#fff" stop-opacity="0.38"></stop> <stop offset="0.92" stop-color="#fff" stop-opacity="0.19"></stop> <stop offset="1" stop-color="#fff" stop-opacity="0"></stop> </linearGradient> <clipPath id="clip-path-2"> <circle class="cls-2" cx="48.72" cy="26.53" r="1.8"></circle> </clipPath> <clipPath id="clip-path-3"> <polygon class="cls-1" points="42.94 27.77 48.97 34.96 54.02 27.47 48.99 29.89 42.94 27.77"></polygon> </clipPath> <linearGradient id="Безымянный_градиент_17-2" x1="55.95" y1="32.6" x2="37.83" y2="32.6" gradientTransform="translate(71.04 -5.84) rotate(90)" xlink:href="#Безымянный_градиент_17"></linearGradient> <clipPath id="clip-path-4"> <polygon class="cls-1" points="48.6 3.93 60.48 22.85 36.72 22.85 48.6 3.93"></polygon> </clipPath> <linearGradient id="Безымянный_градиент_17-3" x1="55.95" y1="13.21" x2="37.83" y2="13.21" gradientTransform="translate(51.65 -25.23) rotate(90)" xlink:href="#Безымянный_градиент_17"></linearGradient> </defs> <title>logo 1 mok horiz-02</title> <path class="cls-3" d="M96.28,3.39a0.29,0.29,0,0,1,.09.21V4.39a0.3,0.3,0,0,1-.3.3H92.49v6.06a0.3,0.3,0,0,1-.3.3H91.3a0.3,0.3,0,0,1-.3-0.3V3.6a0.3,0.3,0,0,1,.3-0.3h4.78A0.29,0.29,0,0,1,96.28,3.39Z"></path> <path class="cls-3" d="M117.42,11a0.29,0.29,0,0,1-.09-0.21V3.6a0.3,0.3,0,0,1,.3-0.3h4.83a0.3,0.3,0,0,1,.3.3V4.39a0.3,0.3,0,0,1-.3.3h-3.64V6.36h2.09a2.5,2.5,0,0,1,1.23.29,2,2,0,0,1,.82.82,2.49,2.49,0,0,1,.29,1.23A2.57,2.57,0,0,1,123,9.89a2.05,2.05,0,0,1-.81.85,2.45,2.45,0,0,1-1.26.31h-3.28A0.28,0.28,0,0,1,117.42,11Zm3.26-1.29a1.1,1.1,0,0,0,.81-0.27,1,1,0,0,0,0-1.38,1.1,1.1,0,0,0-.81-0.27h-1.86V9.66h1.86Z"></path> <path class="cls-3" d="M150.65,3.39a0.29,0.29,0,0,1,.09.21v7.14a0.3,0.3,0,0,1-.3.3h-0.9a0.29,0.29,0,0,1-.21-0.09,0.29,0.29,0,0,1-.09-0.21V4.69h-3.34v6.06a0.3,0.3,0,0,1-.3.3h-0.9a0.3,0.3,0,0,1-.3-0.3V3.6a0.3,0.3,0,0,1,.3-0.3h5.73A0.28,0.28,0,0,1,150.65,3.39Z"></path> <path class="cls-3" d="M177.73,4a3.19,3.19,0,0,1,.88,2.17c0,0.34,0,.63,0,0.88s0,0.7,0,1.09a3.17,3.17,0,0,1-.88,2.16,3.79,3.79,0,0,1-4.73,0,3.18,3.18,0,0,1-.88-2.16q0-.6,0-1.09c0-.25,0-0.55,0-0.88A3.2,3.2,0,0,1,173,4,3.78,3.78,0,0,1,177.73,4Zm-3.61,1a1.74,1.74,0,0,0-.52,1.23c0,0.37,0,.68,0,0.93s0,0.57,0,.94a1.72,1.72,0,0,0,.52,1.22,2,2,0,0,0,2.49,0,1.73,1.73,0,0,0,.51-1.22c0-.18,0-0.5,0-0.94s0-.74,0-0.93A1.75,1.75,0,0,0,176.6,5,2,2,0,0,0,174.12,5Z"></path> <path class="cls-3" d="M199.21,3.6a0.29,0.29,0,0,1,.09-0.2,0.28,0.28,0,0,1,.21-0.09h0.83a0.48,0.48,0,0,1,.29.07,0.69,0.69,0,0,1,.17.2L202.6,7l1.8-3.42a0.69,0.69,0,0,1,.17-0.2,0.48,0.48,0,0,1,.29-0.07h0.83a0.3,0.3,0,0,1,.3.3,0.22,0.22,0,0,1,0,.1l-2.7,5.09-0.11.2a11.7,11.7,0,0,1-.65,1.12,2.41,2.41,0,0,1-.69.67,1.84,1.84,0,0,1-1,.27H200a0.3,0.3,0,0,1-.3-0.3V10a0.3,0.3,0,0,1,.3-0.3h0.63a0.79,0.79,0,0,0,.59-0.26,4.34,4.34,0,0,0,.6-0.87L199.23,3.7A0.22,0.22,0,0,1,199.21,3.6Z"></path> <polygon class="cls-4" points="36.72 22.85 48.6 41.78 24.84 41.78 36.72 22.85"></polygon> <g class="cls-5"> <rect class="cls-6" x="28.36" y="20.29" width="19.18" height="23.75" transform="translate(5.78 70.12) rotate(-90)"></rect> </g> <polygon class="cls-7" points="60.49 22.85 72.37 41.78 48.6 41.78 60.49 22.85"></polygon> <circle class="cls-2" cx="48.72" cy="26.53" r="1.8"></circle> <circle class="cls-2" cx="48.72" cy="26.53" r="1.8"></circle> <g class="cls-8"> <rect class="cls-9" x="27.15" y="20.29" width="19.18" height="23.75" transform="translate(4.57 68.9) rotate(-90)"></rect> </g> <polygon class="cls-7" points="42.94 27.77 48.97 34.96 54.02 27.47 48.99 29.89 42.94 27.77"></polygon> <polygon class="cls-2" points="48.6 3.93 60.48 22.85 36.72 22.85 48.6 3.93"></polygon> <g class="cls-10"> <rect class="cls-11" x="28.78" y="22.38" width="19.31" height="20.44" transform="translate(5.84 71.04) rotate(-90)"></rect> </g> <g class="cls-12"> <rect class="cls-13" x="28.78" y="2.99" width="19.31" height="20.44" transform="translate(25.23 51.65) rotate(-90)"></rect> </g> <path class="cls-3" d="M97.19,40.63a0.88,0.88,0,0,1-.65.27H95.15A0.93,0.93,0,0,1,94.23,40V21.24l-5.51,4.18a0.85,0.85,0,0,1-.58.2,0.87,0.87,0,0,1-.71-0.34l-0.82-1.05a1,1,0,0,1-.2-0.58,0.84,0.84,0,0,1,.37-0.71l7.28-5.58a1.84,1.84,0,0,1,1.09-.27h1.39a0.93,0.93,0,0,1,.92.92V40A0.88,0.88,0,0,1,97.19,40.63Z"></path> <path class="cls-3" d="M123.4,40.63a0.89,0.89,0,0,1-.27-0.65V28.59l-9.9,11.94a0.87,0.87,0,0,1-.75.37h-1.16a0.83,0.83,0,0,1-.63-0.27,0.91,0.91,0,0,1-.25-0.65V24.13a0.93,0.93,0,0,1,.92-0.92h1.26a0.92,0.92,0,0,1,.92.92v11.5l9.9-12a1.2,1.2,0,0,1,.32-0.29,0.9,0.9,0,0,1,.43-0.08h1.12a0.93,0.93,0,0,1,.92.92V40a0.93,0.93,0,0,1-.92.92H124A0.88,0.88,0,0,1,123.4,40.63Zm-9.12-24.54a0.61,0.61,0,0,1,.48-0.19h1.09a0.61,0.61,0,0,1,.48.19,0.65,0.65,0,0,1,.17.46A2.18,2.18,0,0,0,117,18a1.85,1.85,0,0,0,2.69,0,2.18,2.18,0,0,0,.49-1.46,0.65,0.65,0,0,1,.17-0.46,0.61,0.61,0,0,1,.48-0.19h1.09a0.61,0.61,0,0,1,.48.19,0.65,0.65,0,0,1,.17.46,4.51,4.51,0,0,1-1.09,3,4.43,4.43,0,0,1-6.26,0,4.51,4.51,0,0,1-1.09-3A0.65,0.65,0,0,1,114.28,16.09Z"></path> <path class="cls-3" d="M158.4,18.18a1.66,1.66,0,0,1,1.5-1.09h1.29a0.93,0.93,0,0,1,.92.92V40a0.93,0.93,0,0,1-.92.92h-1.39a0.93,0.93,0,0,1-.92-0.92V23.86L153.57,34.1a2.52,2.52,0,0,1-.6.82,1.19,1.19,0,0,1-.8.27h-1.29a1.19,1.19,0,0,1-.8-0.27,2.49,2.49,0,0,1-.6-0.82l-5.31-10.24V40a0.93,0.93,0,0,1-.92.92h-1.39a0.93,0.93,0,0,1-.92-0.92V18a0.92,0.92,0,0,1,.92-0.92h1.29a1.66,1.66,0,0,1,1.5,1.09l6.87,13.3Z"></path> <path class="cls-3" d="M180.09,18a8.21,8.21,0,0,1,3.21,3.32A10.46,10.46,0,0,1,184.48,26q0.07,2,.07,3t-0.07,3a10.79,10.79,0,0,1-1.21,4.68,8.25,8.25,0,0,1-3.2,3.32,10.75,10.75,0,0,1-10,0,8.25,8.25,0,0,1-3.2-3.32A10.79,10.79,0,0,1,165.7,32q0-1,0-3t0-3a10.46,10.46,0,0,1,1.17-4.68A8.2,8.2,0,0,1,170.09,18,10.82,10.82,0,0,1,180.09,18Zm-9.39,3.44a6.57,6.57,0,0,0-1.77,4.73q0,1,0,2.86t0,2.86a6.58,6.58,0,0,0,1.77,4.73,6.83,6.83,0,0,0,8.78,0,6.57,6.57,0,0,0,1.77-4.73c0-1.36.07-2.31,0.07-2.86s0-1.5-.07-2.86a6.57,6.57,0,0,0-1.77-4.73A6.82,6.82,0,0,0,170.7,21.41Z"></path> <path class="cls-3" d="M204.57,39.54a0.94,0.94,0,0,1,.34.61,0.76,0.76,0,0,1-.75.75h-2.11a1.67,1.67,0,0,1-1.22-.51l-9.63-9.18V40a0.93,0.93,0,0,1-.92.92h-1.39A0.93,0.93,0,0,1,188,40V18a0.92,0.92,0,0,1,.92-0.92h1.39a0.93,0.93,0,0,1,.92.92v7.92l9.08-8.33a1.67,1.67,0,0,1,1.22-.51h2a0.72,0.72,0,0,1,.53.22,0.72,0.72,0,0,1,.22.53,0.94,0.94,0,0,1-.34.61L193,28.48Z"></path> <circle id="_Path_" data-name="&lt;Path&gt;" class="cls-3" cx="103.4" cy="29.22" r="1.94"></circle> </svg> 