<?xml version="1.0" encoding="UTF-8"?> <!-- Generator: Adobe Illustrator 23.0.4, SVG Export Plug-In . SVG Version: 6.00 Build 0) --> <svg xmlns="http://www.w3.org/2000/svg" xmlns:xlink="http://www.w3.org/1999/xlink" id="Слой_1" x="0px" y="0px" viewBox="0 0 377.6 358" style="enable-background:new 0 0 377.6 358;" xml:space="preserve"> <style type="text/css"> .st0{fill:#FFFFFF;} .st1{fill:none;stroke:#000000;stroke-miterlimit:10;} .st2{fill:#FFFFFF;stroke:#000000;stroke-width:0.9627;stroke-miterlimit:2.6131;} </style> <g> <image style="overflow:visible;opacity:0.2;" width="413" height="412" xlink:href="CBCCE751D62279AF.png" transform="matrix(1 0 0 1 -19.5276 -22.5276)"> </image> <g> <circle class="st0" cx="187.2" cy="180.9" r="145.7"></circle> <circle class="st1" cx="187.2" cy="180.9" r="145.7"></circle> </g> </g> <g> <g> <polygon class="st2" points="262.5,271.9 114.8,271.9 114.8,87.8 237.4,87.8 262.5,110.5 "></polygon> <polyline class="st2" points="238.3,89.3 238.3,112 262.5,112 "></polyline> </g> <rect x="141.4" y="116.9" width="65.4" height="2.4"></rect> <rect x="141.4" y="238" width="36.3" height="2.4"></rect> <rect x="141.4" y="141.1" width="96.9" height="2.4"></rect> <rect x="141.4" y="153.2" width="96.9" height="2.4"></rect> <rect x="141.4" y="165.3" width="96.9" height="2.4"></rect> <rect x="141.4" y="177.4" width="96.9" height="2.4"></rect> <rect x="141.4" y="191.9" width="96.9" height="2.4"></rect> <rect x="141.4" y="204.1" width="96.9" height="2.4"></rect> <rect x="141.4" y="216.2" width="96.9" height="2.4"></rect> </g> </svg> 